# Blender 3.5.0 Alpha
# www.blender.org
mtllib gs.mtl
o recorte__limpio_grande_ds
v 0.000000 -0.500000 2.364015
v 0.000000 -0.500000 2.364015
v 0.000000 -0.500000 2.364015
v -0.000000 -0.500000 -2.364015
v -0.000000 -0.500000 -2.364015
v -0.000000 -0.500000 -2.364015
v 0.000000 0.500000 2.364015
v 0.000000 0.500000 2.364015
v 0.000000 0.500000 2.364015
v -0.000000 0.500000 -2.364015
v -0.000000 0.500000 -2.364015
v -0.000000 0.500000 -2.364015
v -0.007738 -0.500000 2.364015
v -0.007738 -0.500000 2.364015
v -0.007738 -0.500000 2.364015
v -0.007738 -0.500000 -2.364015
v -0.007738 -0.500000 -2.364015
v -0.007738 -0.500000 -2.364015
v -0.007738 0.500000 2.364015
v -0.007738 0.500000 2.364015
v -0.007738 0.500000 2.364015
v -0.007738 0.500000 -2.364015
v -0.007738 0.500000 -2.364015
v -0.007738 0.500000 -2.364015
vn -1.0000 -0.0000 -0.0000
vn 1.0000 -0.0000 -0.0000
vn -0.0000 -0.0000 1.0000
vn -0.0000 -0.0000 -1.0000
vn -0.0000 -1.0000 -0.0000
vn -0.0000 1.0000 -0.0000
vt 0.000000 0.498311
vt 0.000000 0.000000
vt 0.000000 0.000000
vt 1.000000 0.498311
vt 1.000000 0.000000
vt 1.000000 0.000000
vt 0.000000 1.000000
vt 0.000000 1.000000
vt 0.000000 1.000000
vt 1.000000 1.000000
vt 1.000000 1.000000
vt 1.000000 1.000000
vt 0.000000 0.000000
vt 0.000000 0.000000
vt 1.000000 0.000000
vt 0.000000 0.000000
vt 1.000000 0.000000
vt 1.000000 0.000000
vt 0.000000 1.000000
vt 0.000000 1.000000
vt 1.000000 0.498197
vt 0.000000 0.498197
vt 1.000000 1.000000
vt 1.000000 1.000000
s 0
usemtl Material.001
f 1/1/1 7/7/1 10/10/1
f 1/1/1 10/10/1 4/4/1
f 15/15/2 16/16/2 22/22/2
f 15/15/2 22/22/2 21/21/2
f 5/5/3 12/12/3 24/24/3
f 5/5/3 24/24/3 17/17/3
f 9/9/4 2/2/4 13/13/4
f 9/9/4 13/13/4 20/20/4
f 11/11/5 8/8/5 19/19/5
f 11/11/5 19/19/5 23/23/5
f 3/3/6 6/6/6 18/18/6
f 3/3/6 18/18/6 14/14/6
